<mxfile host="app.diagrams.net" modified="2024-03-04T13:02:43.286Z" agent="Mozilla/5.0 (Windows NT 10.0; Win64; x64) AppleWebKit/537.36 (KHTML, like Gecko) Chrome/120.0.0.0 Safari/537.36" version="24.0.1" etag="LWOrpjtj8zsKdU76Aogk" type="github">
  <diagram name="Страница — 1" id="nWYC5KfCopV2BXM1uHOb">
    <mxGraphModel>
      <root>
        <mxCell id="0" />
        <mxCell id="1" parent="0" />
      </root>
    </mxGraphModel>
  </diagram>
</mxfile>
